<svg width="24" height="20" viewBox="0 0 24 20" fill="none" xmlns="http://www.w3.org/2000/svg">
<path d="M21.543 4.85107C21.558 5.06207 21.558 5.27407 21.558 5.48707C21.558 11.9941 16.604 19.4971 7.548 19.4971V19.4941C4.87223 19.4977 2.25194 18.7312 0 17.2861C1.28916 17.4414 2.59629 17.3411 3.84665 16.9909C5.09702 16.6407 6.26608 16.0474 7.287 15.2451C6.25944 15.2256 5.26365 14.8855 4.43888 14.2723C3.61411 13.6591 3.0016 12.8035 2.687 11.8251C3.42468 11.9673 4.18515 11.9386 4.91 11.7411C3.79573 11.5158 2.79367 10.9121 2.07373 10.0324C1.3538 9.15258 0.96031 8.05087 0.96 6.91407V6.85207C1.64481 7.2337 2.41138 7.44497 3.195 7.46807C2.15247 6.77193 1.41442 5.70466 1.1311 4.48351C0.847781 3.26236 1.04049 1.97913 1.67 0.895068C2.90661 2.41622 4.44931 3.66028 6.19795 4.54649C7.94659 5.4327 9.86206 5.94123 11.82 6.03907C11.5761 4.98389 11.6865 3.87776 12.1342 2.89161C12.5818 1.90546 13.3418 1.0942 14.2967 0.583191C15.2515 0.0721868 16.3481 -0.110111 17.4169 0.0644712C18.4858 0.239053 19.4674 0.760796 20.21 1.54907C21.3132 1.33153 22.3711 0.927037 23.338 0.353068C22.9705 1.49354 22.2011 2.46162 21.173 3.07707C22.1488 2.96151 23.1017 2.70027 24 2.30207C23.3388 3.29085 22.5068 4.15399 21.543 4.85107Z" fill="#1B1B1B"/>
</svg>
